<mxfile modified="2022-03-31T13:26:10.350Z" host="app.diagrams.net" agent="5.0 (Windows NT 10.0; Win64; x64) AppleWebKit/537.36 (KHTML, like Gecko) Chrome/99.0.4844.84 Safari/537.36" etag="5CVpfuMvarbJR_eGSigF" version="17.1.2" type="github">
  <diagram id="Ht1M8jgEwFfnCIfOTk4-" name="Page-1">
    <mxGraphModel dx="1497" dy="876" grid="1" gridSize="10" guides="1" tooltips="1" connect="1" arrows="1" fold="1" page="1" pageScale="1" pageWidth="827" pageHeight="1169" math="0" shadow="0">
      <root>
        <mxCell id="0" />
        <mxCell id="1" parent="0" />
        <mxCell id="jZVaUwOg5UY3L9NAnvdq-71" value="AWS Cloud" style="points=[[0,0],[0.25,0],[0.5,0],[0.75,0],[1,0],[1,0.25],[1,0.5],[1,0.75],[1,1],[0.75,1],[0.5,1],[0.25,1],[0,1],[0,0.75],[0,0.5],[0,0.25]];outlineConnect=0;gradientColor=none;html=1;whiteSpace=wrap;fontSize=12;fontStyle=0;shape=mxgraph.aws4.group;grIcon=mxgraph.aws4.group_aws_cloud_alt;strokeColor=#232F3E;fillColor=none;verticalAlign=top;align=left;spacingLeft=30;fontColor=#232F3E;dashed=0;labelBackgroundColor=none;container=1;pointerEvents=0;collapsible=0;recursiveResize=0;" parent="1" vertex="1">
          <mxGeometry x="230" y="150" width="1089.75" height="757" as="geometry" />
        </mxCell>
        <mxCell id="pvooUh3_schXRIog2_-S-61" value="" style="outlineConnect=0;dashed=0;verticalLabelPosition=bottom;verticalAlign=top;align=center;html=1;shape=mxgraph.aws3.route_53;fillColor=#F58536;gradientColor=none;labelBackgroundColor=#FFFFFF;fontSize=12;strokeColor=#147EBA;strokeWidth=2;" vertex="1" parent="jZVaUwOg5UY3L9NAnvdq-71">
          <mxGeometry x="27.25" y="250.25" width="70.5" height="85.5" as="geometry" />
        </mxCell>
        <mxCell id="pvooUh3_schXRIog2_-S-63" value="Amazon&lt;br&gt;Route 53" style="text;html=1;resizable=0;autosize=1;align=center;verticalAlign=middle;points=[];fillColor=none;strokeColor=none;rounded=0;dashed=1;labelBackgroundColor=#FFFFFF;fontSize=12;" vertex="1" parent="jZVaUwOg5UY3L9NAnvdq-71">
          <mxGeometry x="32.5" y="341.5" width="60" height="30" as="geometry" />
        </mxCell>
        <mxCell id="-QjtrjUzRDEMRZ5MF8oH-47" value="Title text&lt;br&gt;" style="text;html=1;resizable=0;points=[];autosize=1;align=left;verticalAlign=top;spacingTop=-4;fontSize=30;fontStyle=1;labelBackgroundColor=none;" parent="1" vertex="1">
          <mxGeometry x="36.5" y="26.5" width="130" height="40" as="geometry" />
        </mxCell>
        <mxCell id="SCVMTBWpLvtzJIhz15lM-1" value="" style="line;strokeWidth=2;html=1;fontSize=14;labelBackgroundColor=none;" parent="1" vertex="1">
          <mxGeometry x="32.5" y="101.5" width="1477.5" height="10" as="geometry" />
        </mxCell>
        <mxCell id="jZVaUwOg5UY3L9NAnvdq-88" value="Users&lt;br&gt;" style="outlineConnect=0;fontColor=#232F3E;gradientColor=none;fillColor=#232F3E;strokeColor=none;dashed=0;verticalLabelPosition=bottom;verticalAlign=top;align=center;html=1;fontSize=12;fontStyle=0;aspect=fixed;pointerEvents=1;shape=mxgraph.aws4.users;labelBackgroundColor=none;" parent="1" vertex="1">
          <mxGeometry x="72" y="659.9999999999999" width="78" height="78" as="geometry" />
        </mxCell>
        <mxCell id="jZVaUwOg5UY3L9NAnvdq-179" value="" style="group" parent="1" vertex="1" connectable="0">
          <mxGeometry x="1350" y="384.5" width="21" height="26" as="geometry" />
        </mxCell>
        <mxCell id="jZVaUwOg5UY3L9NAnvdq-180" value="" style="rounded=0;whiteSpace=wrap;html=1;labelBackgroundColor=#ffffff;fontSize=14;align=center;strokeColor=none;" parent="jZVaUwOg5UY3L9NAnvdq-179" vertex="1">
          <mxGeometry width="21" height="26" as="geometry" />
        </mxCell>
        <mxCell id="pvooUh3_schXRIog2_-S-5" value="" style="sketch=0;outlineConnect=0;gradientColor=none;fontColor=#545B64;strokeColor=none;fillColor=#879196;dashed=0;verticalLabelPosition=bottom;verticalAlign=top;align=center;html=1;fontSize=12;fontStyle=0;aspect=fixed;shape=mxgraph.aws4.illustration_devices;pointerEvents=1" vertex="1" parent="1">
          <mxGeometry x="61.75" y="476" width="100" height="73" as="geometry" />
        </mxCell>
        <mxCell id="pvooUh3_schXRIog2_-S-9" value="Region" style="points=[[0,0],[0.25,0],[0.5,0],[0.75,0],[1,0],[1,0.25],[1,0.5],[1,0.75],[1,1],[0.75,1],[0.5,1],[0.25,1],[0,1],[0,0.75],[0,0.5],[0,0.25]];outlineConnect=0;gradientColor=none;html=1;whiteSpace=wrap;fontSize=12;fontStyle=0;container=1;pointerEvents=0;collapsible=0;recursiveResize=0;shape=mxgraph.aws4.group;grIcon=mxgraph.aws4.group_region;strokeColor=#147EBA;fillColor=none;verticalAlign=top;align=left;spacingLeft=30;fontColor=#147EBA;dashed=1;" vertex="1" parent="1">
          <mxGeometry x="340" y="180" width="970" height="710" as="geometry" />
        </mxCell>
        <mxCell id="jZVaUwOg5UY3L9NAnvdq-98" value="Lambda" style="outlineConnect=0;fontColor=#232F3E;gradientColor=none;fillColor=#D05C17;strokeColor=none;dashed=0;verticalLabelPosition=bottom;verticalAlign=top;align=center;html=1;fontSize=12;fontStyle=0;aspect=fixed;pointerEvents=1;shape=mxgraph.aws4.lambda_function;labelBackgroundColor=none;" parent="pvooUh3_schXRIog2_-S-9" vertex="1">
          <mxGeometry x="616.5" y="559.9999999999999" width="78" height="78" as="geometry" />
        </mxCell>
        <mxCell id="pvooUh3_schXRIog2_-S-10" value="VPC" style="points=[[0,0],[0.25,0],[0.5,0],[0.75,0],[1,0],[1,0.25],[1,0.5],[1,0.75],[1,1],[0.75,1],[0.5,1],[0.25,1],[0,1],[0,0.75],[0,0.5],[0,0.25]];outlineConnect=0;gradientColor=none;html=1;whiteSpace=wrap;fontSize=12;fontStyle=0;container=1;pointerEvents=0;collapsible=0;recursiveResize=0;shape=mxgraph.aws4.group;grIcon=mxgraph.aws4.group_vpc;strokeColor=#248814;fillColor=none;verticalAlign=top;align=left;spacingLeft=30;fontColor=#AAB7B8;dashed=0;" vertex="1" parent="1">
          <mxGeometry x="370" y="210" width="740" height="500" as="geometry" />
        </mxCell>
        <mxCell id="pvooUh3_schXRIog2_-S-56" value="" style="rounded=1;whiteSpace=wrap;html=1;direction=south;dashed=1;fillColor=none;strokeWidth=2;" vertex="1" parent="pvooUh3_schXRIog2_-S-10">
          <mxGeometry x="568.25" y="44" width="113" height="376" as="geometry" />
        </mxCell>
        <mxCell id="pvooUh3_schXRIog2_-S-13" value="Availability Zone 2" style="fillColor=none;strokeColor=#147EBA;dashed=1;verticalAlign=top;fontStyle=0;fontColor=#147EBA;align=right;" vertex="1" parent="pvooUh3_schXRIog2_-S-10">
          <mxGeometry x="140" y="280" width="580" height="160" as="geometry" />
        </mxCell>
        <mxCell id="pvooUh3_schXRIog2_-S-37" value="" style="endArrow=classic;startArrow=classic;html=1;rounded=0;fontSize=15;exitX=0;exitY=0.5;exitDx=0;exitDy=0;exitPerimeter=0;" edge="1" parent="pvooUh3_schXRIog2_-S-10" source="pvooUh3_schXRIog2_-S-22">
          <mxGeometry width="50" height="50" relative="1" as="geometry">
            <mxPoint x="180" y="240" as="sourcePoint" />
            <mxPoint x="180" y="350" as="targetPoint" />
            <Array as="points">
              <mxPoint x="66" y="350" />
            </Array>
          </mxGeometry>
        </mxCell>
        <mxCell id="pvooUh3_schXRIog2_-S-12" value="Availability Zone 1" style="fillColor=none;strokeColor=#147EBA;dashed=1;verticalAlign=top;fontStyle=0;fontColor=#147EBA;align=right;" vertex="1" parent="pvooUh3_schXRIog2_-S-10">
          <mxGeometry x="140" y="20" width="580" height="170" as="geometry" />
        </mxCell>
        <mxCell id="pvooUh3_schXRIog2_-S-19" value="" style="sketch=0;points=[[0,0,0],[0.25,0,0],[0.5,0,0],[0.75,0,0],[1,0,0],[0,1,0],[0.25,1,0],[0.5,1,0],[0.75,1,0],[1,1,0],[0,0.25,0],[0,0.5,0],[0,0.75,0],[1,0.25,0],[1,0.5,0],[1,0.75,0]];outlineConnect=0;fontColor=#232F3E;gradientColor=#F78E04;gradientDirection=north;fillColor=#D05C17;strokeColor=#ffffff;dashed=0;verticalLabelPosition=bottom;verticalAlign=top;align=center;html=1;fontSize=12;fontStyle=0;aspect=fixed;shape=mxgraph.aws4.resourceIcon;resIcon=mxgraph.aws4.ecs;" vertex="1" parent="pvooUh3_schXRIog2_-S-10">
          <mxGeometry x="180" y="70" width="54" height="54" as="geometry" />
        </mxCell>
        <mxCell id="pvooUh3_schXRIog2_-S-20" value="" style="sketch=0;points=[[0,0,0],[0.25,0,0],[0.5,0,0],[0.75,0,0],[1,0,0],[0,1,0],[0.25,1,0],[0.5,1,0],[0.75,1,0],[1,1,0],[0,0.25,0],[0,0.5,0],[0,0.75,0],[1,0.25,0],[1,0.5,0],[1,0.75,0]];outlineConnect=0;fontColor=#232F3E;gradientColor=#F78E04;gradientDirection=north;fillColor=#D05C17;strokeColor=#ffffff;dashed=0;verticalLabelPosition=bottom;verticalAlign=top;align=center;html=1;fontSize=12;fontStyle=0;aspect=fixed;shape=mxgraph.aws4.resourceIcon;resIcon=mxgraph.aws4.ecs;" vertex="1" parent="pvooUh3_schXRIog2_-S-10">
          <mxGeometry x="181.25" y="323" width="51.5" height="51.5" as="geometry" />
        </mxCell>
        <mxCell id="pvooUh3_schXRIog2_-S-22" value="" style="outlineConnect=0;dashed=0;verticalLabelPosition=bottom;verticalAlign=top;align=center;html=1;shape=mxgraph.aws3.application_load_balancer;fillColor=#F58534;gradientColor=none;direction=north;" vertex="1" parent="pvooUh3_schXRIog2_-S-10">
          <mxGeometry x="30" y="195.5" width="72" height="69" as="geometry" />
        </mxCell>
        <mxCell id="pvooUh3_schXRIog2_-S-24" value="Web Server" style="text;html=1;resizable=0;autosize=1;align=center;verticalAlign=middle;points=[];fillColor=none;strokeColor=none;rounded=0;dashed=1;" vertex="1" parent="pvooUh3_schXRIog2_-S-10">
          <mxGeometry x="167" y="135" width="80" height="20" as="geometry" />
        </mxCell>
        <mxCell id="pvooUh3_schXRIog2_-S-25" value="Web Server" style="text;html=1;resizable=0;autosize=1;align=center;verticalAlign=middle;points=[];fillColor=none;strokeColor=none;rounded=0;dashed=1;" vertex="1" parent="pvooUh3_schXRIog2_-S-10">
          <mxGeometry x="167" y="380" width="80" height="20" as="geometry" />
        </mxCell>
        <mxCell id="pvooUh3_schXRIog2_-S-26" value="&lt;span style=&quot;color: rgb(22 , 25 , 31) ; font-family: &amp;#34;amazon ember&amp;#34; , &amp;#34;helvetica neue&amp;#34; , &amp;#34;roboto&amp;#34; , &amp;#34;arial&amp;#34; , sans-serif ; font-size: 15px ; text-align: left ; background-color: rgb(255 , 255 , 255)&quot;&gt;&lt;b&gt;Application&lt;br&gt;Load&lt;br&gt;Balancer&lt;/b&gt;&lt;/span&gt;" style="text;html=1;resizable=0;autosize=1;align=center;verticalAlign=middle;points=[];fillColor=none;strokeColor=none;rounded=0;dashed=1;" vertex="1" parent="pvooUh3_schXRIog2_-S-10">
          <mxGeometry x="20" y="264.5" width="100" height="50" as="geometry" />
        </mxCell>
        <mxCell id="pvooUh3_schXRIog2_-S-31" value="" style="sketch=0;points=[[0,0,0],[0.25,0,0],[0.5,0,0],[0.75,0,0],[1,0,0],[0,1,0],[0.25,1,0],[0.5,1,0],[0.75,1,0],[1,1,0],[0,0.25,0],[0,0.5,0],[0,0.75,0],[1,0.25,0],[1,0.5,0],[1,0.75,0]];outlineConnect=0;fontColor=#232F3E;gradientColor=#F78E04;gradientDirection=north;fillColor=#D05C17;strokeColor=#ffffff;dashed=0;verticalLabelPosition=bottom;verticalAlign=top;align=center;html=1;fontSize=12;fontStyle=0;aspect=fixed;shape=mxgraph.aws4.resourceIcon;resIcon=mxgraph.aws4.ecs;" vertex="1" parent="pvooUh3_schXRIog2_-S-10">
          <mxGeometry x="403" y="70" width="54" height="54" as="geometry" />
        </mxCell>
        <mxCell id="pvooUh3_schXRIog2_-S-32" value="" style="sketch=0;points=[[0,0,0],[0.25,0,0],[0.5,0,0],[0.75,0,0],[1,0,0],[0,1,0],[0.25,1,0],[0.5,1,0],[0.75,1,0],[1,1,0],[0,0.25,0],[0,0.5,0],[0,0.75,0],[1,0.25,0],[1,0.5,0],[1,0.75,0]];outlineConnect=0;fontColor=#232F3E;gradientColor=#F78E04;gradientDirection=north;fillColor=#D05C17;strokeColor=#ffffff;dashed=0;verticalLabelPosition=bottom;verticalAlign=top;align=center;html=1;fontSize=12;fontStyle=0;aspect=fixed;shape=mxgraph.aws4.resourceIcon;resIcon=mxgraph.aws4.ecs;" vertex="1" parent="pvooUh3_schXRIog2_-S-10">
          <mxGeometry x="403" y="321.75" width="54" height="54" as="geometry" />
        </mxCell>
        <mxCell id="pvooUh3_schXRIog2_-S-34" value="" style="outlineConnect=0;dashed=0;verticalLabelPosition=bottom;verticalAlign=top;align=center;html=1;shape=mxgraph.aws3.application_load_balancer;fillColor=#F58534;gradientColor=none;direction=north;" vertex="1" parent="pvooUh3_schXRIog2_-S-10">
          <mxGeometry x="288" y="195.5" width="72" height="69" as="geometry" />
        </mxCell>
        <mxCell id="pvooUh3_schXRIog2_-S-35" value="" style="endArrow=classic;startArrow=classic;html=1;rounded=0;fontSize=15;exitX=1;exitY=0.5;exitDx=0;exitDy=0;exitPerimeter=0;entryX=0.5;entryY=0;entryDx=0;entryDy=0;entryPerimeter=0;" edge="1" parent="pvooUh3_schXRIog2_-S-10" source="pvooUh3_schXRIog2_-S-19" target="pvooUh3_schXRIog2_-S-34">
          <mxGeometry width="50" height="50" relative="1" as="geometry">
            <mxPoint x="180" y="240" as="sourcePoint" />
            <mxPoint x="230" y="190" as="targetPoint" />
            <Array as="points">
              <mxPoint x="260" y="97" />
              <mxPoint x="260" y="230" />
            </Array>
          </mxGeometry>
        </mxCell>
        <mxCell id="pvooUh3_schXRIog2_-S-36" value="" style="endArrow=classic;startArrow=classic;html=1;rounded=0;fontSize=15;exitX=1;exitY=0.5;exitDx=0;exitDy=0;exitPerimeter=0;entryX=0;entryY=0.5;entryDx=0;entryDy=0;entryPerimeter=0;" edge="1" parent="pvooUh3_schXRIog2_-S-10" source="pvooUh3_schXRIog2_-S-22" target="pvooUh3_schXRIog2_-S-19">
          <mxGeometry width="50" height="50" relative="1" as="geometry">
            <mxPoint x="180" y="240" as="sourcePoint" />
            <mxPoint x="230" y="190" as="targetPoint" />
            <Array as="points">
              <mxPoint x="66" y="97" />
            </Array>
          </mxGeometry>
        </mxCell>
        <mxCell id="pvooUh3_schXRIog2_-S-39" value="" style="endArrow=classic;startArrow=classic;html=1;rounded=0;fontSize=15;exitX=0.5;exitY=0;exitDx=0;exitDy=0;exitPerimeter=0;entryX=1;entryY=0.5;entryDx=0;entryDy=0;entryPerimeter=0;" edge="1" parent="pvooUh3_schXRIog2_-S-10" source="pvooUh3_schXRIog2_-S-34" target="pvooUh3_schXRIog2_-S-20">
          <mxGeometry width="50" height="50" relative="1" as="geometry">
            <mxPoint x="180" y="240" as="sourcePoint" />
            <mxPoint x="230" y="190" as="targetPoint" />
            <Array as="points">
              <mxPoint x="260" y="230" />
              <mxPoint x="260" y="350" />
            </Array>
          </mxGeometry>
        </mxCell>
        <mxCell id="pvooUh3_schXRIog2_-S-40" value="" style="endArrow=classic;startArrow=classic;html=1;rounded=0;fontSize=15;exitX=0.5;exitY=1;exitDx=0;exitDy=0;exitPerimeter=0;entryX=0;entryY=0.5;entryDx=0;entryDy=0;entryPerimeter=0;" edge="1" parent="pvooUh3_schXRIog2_-S-10" source="pvooUh3_schXRIog2_-S-34" target="pvooUh3_schXRIog2_-S-31">
          <mxGeometry width="50" height="50" relative="1" as="geometry">
            <mxPoint x="180" y="250" as="sourcePoint" />
            <mxPoint x="230" y="200" as="targetPoint" />
            <Array as="points">
              <mxPoint x="380" y="230" />
              <mxPoint x="380" y="97" />
            </Array>
          </mxGeometry>
        </mxCell>
        <mxCell id="pvooUh3_schXRIog2_-S-41" value="" style="endArrow=classic;startArrow=classic;html=1;rounded=0;fontSize=15;exitX=0.5;exitY=1;exitDx=0;exitDy=0;exitPerimeter=0;entryX=0;entryY=0.5;entryDx=0;entryDy=0;entryPerimeter=0;" edge="1" parent="pvooUh3_schXRIog2_-S-10" source="pvooUh3_schXRIog2_-S-34" target="pvooUh3_schXRIog2_-S-32">
          <mxGeometry width="50" height="50" relative="1" as="geometry">
            <mxPoint x="180" y="250" as="sourcePoint" />
            <mxPoint x="230" y="200" as="targetPoint" />
            <Array as="points">
              <mxPoint x="380" y="230" />
              <mxPoint x="380" y="349" />
            </Array>
          </mxGeometry>
        </mxCell>
        <mxCell id="pvooUh3_schXRIog2_-S-42" value="&lt;font style=&quot;font-size: 12px&quot;&gt;App Server&lt;/font&gt;" style="text;html=1;resizable=0;autosize=1;align=center;verticalAlign=middle;points=[];fillColor=none;strokeColor=none;rounded=0;dashed=1;labelBackgroundColor=#FFFFFF;fontSize=15;" vertex="1" parent="pvooUh3_schXRIog2_-S-10">
          <mxGeometry x="390" y="124" width="80" height="20" as="geometry" />
        </mxCell>
        <mxCell id="pvooUh3_schXRIog2_-S-43" value="&lt;font style=&quot;font-size: 12px&quot;&gt;App Server&lt;/font&gt;" style="text;html=1;resizable=0;autosize=1;align=center;verticalAlign=middle;points=[];fillColor=none;strokeColor=none;rounded=0;dashed=1;labelBackgroundColor=#FFFFFF;fontSize=15;" vertex="1" parent="pvooUh3_schXRIog2_-S-10">
          <mxGeometry x="390" y="375.75" width="80" height="20" as="geometry" />
        </mxCell>
        <mxCell id="pvooUh3_schXRIog2_-S-47" value="" style="outlineConnect=0;dashed=0;verticalLabelPosition=bottom;verticalAlign=top;align=center;html=1;shape=mxgraph.aws3.rds_db_instance;fillColor=#2E73B8;gradientColor=none;labelBackgroundColor=#FFFFFF;fontSize=12;strokeColor=#147EBA;strokeWidth=2;" vertex="1" parent="pvooUh3_schXRIog2_-S-10">
          <mxGeometry x="600" y="64" width="49.5" height="66" as="geometry" />
        </mxCell>
        <mxCell id="pvooUh3_schXRIog2_-S-48" value="Database&lt;br&gt;Server(Master)" style="text;html=1;resizable=0;autosize=1;align=center;verticalAlign=middle;points=[];fillColor=none;strokeColor=none;rounded=0;dashed=1;labelBackgroundColor=#FFFFFF;fontSize=12;" vertex="1" parent="pvooUh3_schXRIog2_-S-10">
          <mxGeometry x="574.75" y="130" width="100" height="30" as="geometry" />
        </mxCell>
        <mxCell id="pvooUh3_schXRIog2_-S-49" value="" style="endArrow=classic;startArrow=classic;html=1;rounded=0;fontSize=12;exitX=1;exitY=0.5;exitDx=0;exitDy=0;exitPerimeter=0;" edge="1" parent="pvooUh3_schXRIog2_-S-10" source="pvooUh3_schXRIog2_-S-31" target="pvooUh3_schXRIog2_-S-47">
          <mxGeometry width="50" height="50" relative="1" as="geometry">
            <mxPoint x="530" y="290" as="sourcePoint" />
            <mxPoint x="580" y="240" as="targetPoint" />
          </mxGeometry>
        </mxCell>
        <mxCell id="pvooUh3_schXRIog2_-S-51" value="" style="endArrow=classic;startArrow=classic;html=1;rounded=0;fontSize=12;exitX=1;exitY=0.5;exitDx=0;exitDy=0;exitPerimeter=0;entryX=0;entryY=0.5;entryDx=0;entryDy=0;entryPerimeter=0;" edge="1" parent="pvooUh3_schXRIog2_-S-10" source="pvooUh3_schXRIog2_-S-32" target="pvooUh3_schXRIog2_-S-47">
          <mxGeometry width="50" height="50" relative="1" as="geometry">
            <mxPoint x="530" y="290" as="sourcePoint" />
            <mxPoint x="600" y="100" as="targetPoint" />
            <Array as="points">
              <mxPoint x="520" y="349" />
              <mxPoint x="520" y="97" />
            </Array>
          </mxGeometry>
        </mxCell>
        <mxCell id="pvooUh3_schXRIog2_-S-52" value="" style="outlineConnect=0;dashed=0;verticalLabelPosition=bottom;verticalAlign=top;align=center;html=1;shape=mxgraph.aws3.rds_db_instance_standby_multi_az;fillColor=#2E73B8;gradientColor=none;labelBackgroundColor=#FFFFFF;fontSize=12;strokeColor=#147EBA;strokeWidth=2;" vertex="1" parent="pvooUh3_schXRIog2_-S-10">
          <mxGeometry x="600" y="315.75" width="49.5" height="66" as="geometry" />
        </mxCell>
        <mxCell id="pvooUh3_schXRIog2_-S-53" value="&lt;b&gt;Amazon ECS&lt;/b&gt;" style="text;html=1;resizable=0;autosize=1;align=center;verticalAlign=middle;points=[];fillColor=none;strokeColor=none;rounded=0;dashed=1;labelBackgroundColor=#FFFFFF;fontSize=12;" vertex="1" parent="pvooUh3_schXRIog2_-S-10">
          <mxGeometry x="167" y="44" width="90" height="20" as="geometry" />
        </mxCell>
        <mxCell id="pvooUh3_schXRIog2_-S-54" value="" style="rounded=1;whiteSpace=wrap;html=1;direction=south;dashed=1;fillColor=none;strokeWidth=2;" vertex="1" parent="pvooUh3_schXRIog2_-S-10">
          <mxGeometry x="373.5" y="40" width="113" height="380" as="geometry" />
        </mxCell>
        <mxCell id="pvooUh3_schXRIog2_-S-55" value="&lt;b&gt;Amazon ECS&lt;/b&gt;" style="text;html=1;resizable=0;autosize=1;align=center;verticalAlign=middle;points=[];fillColor=none;strokeColor=none;rounded=0;dashed=1;labelBackgroundColor=#FFFFFF;fontSize=12;" vertex="1" parent="pvooUh3_schXRIog2_-S-10">
          <mxGeometry x="385" y="44" width="90" height="20" as="geometry" />
        </mxCell>
        <mxCell id="pvooUh3_schXRIog2_-S-57" value="&lt;b&gt;Amazon RDS&lt;/b&gt;" style="text;html=1;resizable=0;autosize=1;align=center;verticalAlign=middle;points=[];fillColor=none;strokeColor=none;rounded=0;dashed=1;labelBackgroundColor=#FFFFFF;fontSize=12;" vertex="1" parent="pvooUh3_schXRIog2_-S-10">
          <mxGeometry x="579.75" y="44" width="90" height="20" as="geometry" />
        </mxCell>
        <mxCell id="pvooUh3_schXRIog2_-S-58" value="Database&lt;br&gt;Server(Standby)" style="text;html=1;resizable=0;autosize=1;align=center;verticalAlign=middle;points=[];fillColor=none;strokeColor=none;rounded=0;dashed=1;labelBackgroundColor=#FFFFFF;fontSize=12;" vertex="1" parent="pvooUh3_schXRIog2_-S-10">
          <mxGeometry x="574.75" y="381.75" width="100" height="30" as="geometry" />
        </mxCell>
        <mxCell id="pvooUh3_schXRIog2_-S-23" value="" style="rounded=1;whiteSpace=wrap;html=1;direction=south;dashed=1;fillColor=none;strokeWidth=2;" vertex="1" parent="pvooUh3_schXRIog2_-S-10">
          <mxGeometry x="155.5" y="40" width="113" height="380" as="geometry" />
        </mxCell>
        <mxCell id="pvooUh3_schXRIog2_-S-44" value="" style="outlineConnect=0;dashed=0;verticalLabelPosition=bottom;verticalAlign=top;align=center;html=1;shape=mxgraph.aws3.rds_db_instance;fillColor=#2E73B8;gradientColor=none;labelBackgroundColor=#FFFFFF;fontSize=12;strokeColor=#147EBA;strokeWidth=2;" vertex="1" parent="1">
          <mxGeometry x="550" y="410" width="49.5" height="66" as="geometry" />
        </mxCell>
        <mxCell id="pvooUh3_schXRIog2_-S-45" value="" style="outlineConnect=0;dashed=0;verticalLabelPosition=bottom;verticalAlign=top;align=center;html=1;shape=mxgraph.aws3.rds_db_instance;fillColor=#2E73B8;gradientColor=none;labelBackgroundColor=#FFFFFF;fontSize=12;strokeColor=#147EBA;strokeWidth=2;" vertex="1" parent="1">
          <mxGeometry x="550" y="410" width="49.5" height="66" as="geometry" />
        </mxCell>
        <mxCell id="pvooUh3_schXRIog2_-S-62" value="" style="outlineConnect=0;dashed=0;verticalLabelPosition=bottom;verticalAlign=top;align=center;html=1;shape=mxgraph.aws3.internet;fillColor=#D2D3D3;gradientColor=none;labelBackgroundColor=#FFFFFF;fontSize=12;strokeColor=#147EBA;strokeWidth=2;" vertex="1" parent="1">
          <mxGeometry x="61.75" y="305" width="79.5" height="79.5" as="geometry" />
        </mxCell>
        <mxCell id="pvooUh3_schXRIog2_-S-64" value="" style="endArrow=classic;startArrow=classic;html=1;rounded=0;fontSize=12;exitX=0.5;exitY=0;exitDx=0;exitDy=0;exitPerimeter=0;" edge="1" parent="1" source="pvooUh3_schXRIog2_-S-22" target="pvooUh3_schXRIog2_-S-61">
          <mxGeometry width="50" height="50" relative="1" as="geometry">
            <mxPoint x="620" y="470" as="sourcePoint" />
            <mxPoint x="670" y="420" as="targetPoint" />
          </mxGeometry>
        </mxCell>
        <mxCell id="pvooUh3_schXRIog2_-S-65" value="" style="endArrow=classic;startArrow=classic;html=1;rounded=0;fontSize=12;entryX=0.5;entryY=0;entryDx=0;entryDy=0;entryPerimeter=0;exitX=1;exitY=0.47;exitDx=0;exitDy=0;exitPerimeter=0;" edge="1" parent="1" source="pvooUh3_schXRIog2_-S-62" target="pvooUh3_schXRIog2_-S-61">
          <mxGeometry width="50" height="50" relative="1" as="geometry">
            <mxPoint x="620" y="470" as="sourcePoint" />
            <mxPoint x="670" y="420" as="targetPoint" />
            <Array as="points">
              <mxPoint x="293" y="342" />
            </Array>
          </mxGeometry>
        </mxCell>
        <mxCell id="pvooUh3_schXRIog2_-S-68" value="" style="endArrow=classic;startArrow=classic;html=1;rounded=0;fontSize=12;" edge="1" parent="1" source="jZVaUwOg5UY3L9NAnvdq-88" target="pvooUh3_schXRIog2_-S-5">
          <mxGeometry width="50" height="50" relative="1" as="geometry">
            <mxPoint x="100" y="650" as="sourcePoint" />
            <mxPoint x="670" y="420" as="targetPoint" />
          </mxGeometry>
        </mxCell>
        <mxCell id="pvooUh3_schXRIog2_-S-69" value="" style="endArrow=classic;startArrow=classic;html=1;rounded=0;fontSize=12;exitX=0.6;exitY=1;exitDx=0;exitDy=0;exitPerimeter=0;" edge="1" parent="1" source="pvooUh3_schXRIog2_-S-62" target="pvooUh3_schXRIog2_-S-5">
          <mxGeometry width="50" height="50" relative="1" as="geometry">
            <mxPoint x="620" y="470" as="sourcePoint" />
            <mxPoint x="670" y="420" as="targetPoint" />
          </mxGeometry>
        </mxCell>
      </root>
    </mxGraphModel>
  </diagram>
</mxfile>
